<?xml version="1.0" encoding="utf-8"?>
<!-- Generator: Adobe Illustrator 26.0.2, SVG Export Plug-In . SVG Version: 6.00 Build 0)  -->
<svg version="1.1" xmlns="http://www.w3.org/2000/svg" xmlns:xlink="http://www.w3.org/1999/xlink" x="0px" y="0px"
	 viewBox="0 0 1083.17 941.07" style="enable-background:new 0 0 1083.17 941.07;" xml:space="preserve">
<style type="text/css">
	.st0{display:none;}
</style>
<g id="Layer_2" class="st0">
</g>
<g id="Layer_1">
	<g>
		<path d="M33.4,332.28c26.76,0,53.23,0,80.47,0c0.21,14.89,0.07,29.54,0.1,44.19c0.02,14.89,0,29.79,0.01,44.68
			c0,14.57-0.01,29.15,0.01,43.72c0.46,0.06,0.91,0.12,1.37,0.19c1.69-5.06,3.43-10.1,5.05-15.18c4.62-14.52,9.12-29.07,13.79-43.57
			c12.56-39.02,25.21-78.01,37.78-117.03c8.51-26.4,16.96-52.83,25.45-79.24c1.27-3.96,2.38-8,4.05-11.78
			c0.8-1.8,2.45-3.76,4.21-4.52c32.25-13.97,64.58-27.77,96.89-41.61c24.99-10.71,49.98-21.43,74.97-32.16
			c39.48-16.94,78.95-33.9,118.43-50.82c39.33-16.85,78.67-33.67,118.01-50.48c3.93-1.68,4.64-1.2,7.94,2.02
			c11.41,11.15,22.97,22.16,34.47,33.22c1.05,1.01,2.09,2.02,3.12,3.05c11.56,11.56,23.08,23.16,34.69,34.66
			c19.21,19.04,38.48,38.02,57.74,57.01c16.03,15.8,32.08,31.57,48.1,47.38c21.19,20.91,42.35,41.85,63.53,62.78
			c20.66,20.42,41.31,40.84,62,61.23c3.48,3.43,7.25,6.58,10.7,10.05c2.08,2.1,4.53,1.96,7.07,1.96c30.15,0,60.3,0,90.45,0
			c1.63,0,3.27-0.03,4.9,0.04c0.87,0.04,1.73,0.25,2.95,0.43c0,18.3,0,36.37,0,55.09c-2.12,0.14-4.2,0.39-6.29,0.39
			c-20.7,0.03-41.41,0.02-62.11,0.02c-1.27,0-2.56,0.13-3.81-0.02c-3.08-0.37-4.52,1-5.45,3.92c-3.39,10.73-7.02,21.38-10.58,32.05
			c-5.57,16.7-11.17,33.39-16.74,50.08c-0.51,1.54-0.94,3.11-1.64,5.46c2.35,0.14,4.41,0.35,6.47,0.36
			c30.88,0.02,61.75,0.02,92.62,0.02c2.14,0,4.28,0,6.26,0c1.28,5.45,1.22,201.69-0.05,207.42c-58.08,0-116.3,0-174.73,0
			c-0.81,2.13-1.51,3.77-2.08,5.46c-13.52,40.25-27.05,80.49-40.5,120.76c-0.79,2.37-1.1,4.92-1.49,7.41
			c-0.68,4.27-3.21,7.07-7.15,7.84c-7.63,1.5-15.31,2.79-22.86,4.61c-37.35,9-74.65,18.15-111.98,27.24
			c-39.09,9.52-78.17,19.03-117.27,28.52c-30.29,7.35-60.6,14.64-90.89,21.98c-12.32,2.98-24.66,5.95-36.95,9.07
			c-4.41,1.12-7.9-0.35-10.86-3.31c-3.97-3.97-7.64-8.25-11.6-12.23c-15.11-15.2-30.34-30.28-45.43-45.49
			c-18.54-18.69-36.99-37.46-55.47-56.2c-16.57-16.8-33.12-33.62-49.68-50.42c-17.07-17.32-34.17-34.63-51.22-51.98
			c-3.17-3.23-6.27-6.55-9.22-9.99c-2.2-2.56-4.73-3.46-8.11-3.43c-17.07,0.14-34.14,0.06-51.22,0.06c-33.96,0-67.92,0-101.89,0
			c-2.13,0-4.26,0-6.2,0C32.26,682.08,32.19,337.7,33.4,332.28z M599.68,477.87c0.18,0.38,0.36,0.77,0.54,1.15
			c22.57,0,45.14,0,68.51,0c0.08,18.87,0.04,37.09,0.03,55.37c-1.56,0.29-2.42,0.55-3.29,0.6c-1.63,0.08-3.27,0.05-4.9,0.05
			c-38.68,0-77.36,0.04-116.04-0.05c-3.97-0.01-7.33,0.51-10.33,3.54c-4.45,4.5-9.35,8.55-14.01,12.85
			c-10.25,9.46-20.48,18.94-30.68,28.46c-12.32,11.51-24.5,23.16-36.94,34.54c-2.56,2.34-3.41,4.7-3.39,8.02
			c0.12,19.25,0.06,38.5,0.04,57.75c0,2.12-0.18,4.24-0.3,7.04c-2.43,0-4.37,0-6.31,0c-19.43,0-38.87,0.17-58.29-0.09
			c-6.41-0.09-12.29,0.05-16.36,5.99c-0.68,0.99-2.03,1.51-2.95,2.37c-12.04,11.27-24.04,22.58-36.1,33.83
			c-5.03,4.69-10.29,9.15-15.25,13.91c-2.22,2.13-5.07,3.87-6.21,7.41c167.85,23.33,335.31,46.61,503.51,69.99
			c-0.34-3.1-0.52-5.39-0.85-7.65c-1.63-11.09-3.3-22.16-4.95-33.25c-4.29-28.78-8.58-57.56-12.88-86.34
			c-0.87-5.85-0.88-5.88-6.7-5.88c-16.34-0.02-32.69,0.01-49.03-0.03c-2.1,0-4.19-0.29-6.76-0.47c0-3.13,0-5.65,0-8.17
			c0-103.88,0-207.75,0-311.63c0-1.82,0.08-3.64-0.03-5.45c-0.07-1.11-0.42-2.21-0.78-3.93c-7.1,6.45-13.71,12.32-20.18,18.35
			c-12.33,11.49-24.58,23.06-36.86,34.6c-4.1,3.85-8.18,7.71-12.3,11.52c-12.51,11.56-25.03,23.1-37.56,34.63
			c-5.6,5.15-11.24,10.25-16.82,15.41C603.33,474.09,601.53,476.01,599.68,477.87z M729.11,341.26
			c-172.54-45.55-345.21-91.14-518.83-136.98c23.54,142.8,46.91,284.53,70.37,426.83c2.32,0,4.28,0,6.23,0
			c14.17,0,28.33-0.02,42.5,0.02c1.9,0,3.8,0.27,5.68,0.41c0,18.77,0,36.85,0,55.62c-15.16,0-29.95,0-45.29,0
			c3.21,19.55,6.3,38.33,9.48,57.65c1.55-0.83,2.59-1.16,3.32-1.83c6.82-6.24,13.62-12.49,20.35-18.82
			c9.51-8.94,18.93-17.98,28.44-26.92c3.96-3.72,7.9-7.48,12.13-10.88c3.1-2.5,4.48-5.28,4.41-9.31c-0.2-12.17-0.07-24.34-0.07-36.5
			c0-99.53,0-199.05-0.01-298.58c0-2.27-0.1-4.54-0.15-6.8c-0.47-0.06-0.94-0.13-1.41-0.19c-4.56,14.45-9.13,28.89-13.69,43.34
			c-4.65,14.72-9.25,29.45-13.94,44.15c-4.61,14.44-8.96,28.98-13.93,43.68c-9.61-3.23-18.74-5.3-27.74-8.92
			c10.44-33.18,21.22-65.65,31.58-98.74c-10.94-3.33-21.12-6.43-31.95-9.73c2.13-6.4,4.09-12.29,6.12-18.37
			c2.5,0.47,4.26,0.82,6.02,1.14c3.93,0.7,7.84,1.66,11.8,2c10.48,0.9,18.81-2.94,24.56-11.94c0.96-1.5,1.94-2.98,3.11-4.78
			c7.23,2.21,14.26,4.35,21.38,6.52c-0.78,3.27-1.38,5.82-2.13,8.98c104.42,0,208.22,0,311.91,0c1.24,6.15,1.02,51.17-0.32,55.68
			c-15.6,0-31.37,0-47.14,0c-15.62,0-31.24,0-46.86,0c-15.8,0-31.6-0.01-47.4,0c-15.73,0.01-31.46-0.03-47.46,0.03
			c-1.62,17.3-8.34,30.34-25.67,35.83c0.87,1.08,1.4,1.8,1.99,2.46c8.67,9.84,11.66,21.22,8.69,33.94
			c-1.14,4.91-3.26,9.59-4.96,14.36c-0.46,1.29-1,2.55-1.77,4.48c5.73,0,10.77,0,15.81,0c32.33,0,64.66-0.02,96.98,0.04
			c3.22,0.01,5.83-0.55,8.34-2.94c8-7.62,16.31-14.91,24.44-22.4c10.26-9.45,20.46-18.96,30.69-28.45
			c13.94-12.95,27.87-25.9,41.82-38.85c13.41-12.45,26.83-24.89,40.26-37.31C729.08,347.07,730.63,344.8,729.11,341.26z
			 M615.55,26.49c-130.69,55.9-260.98,111.63-391.27,167.38c-1.98,0.85-3.88,1.89-5.81,2.86c-0.11,0.06-0.15,0.33-0.16,0.51
			c-0.01,0.15,0.08,0.29,0.21,0.71c0.69,0.22,1.52,0.54,2.38,0.77c34.33,9.1,68.66,18.22,103,27.28
			c34.52,9.1,69.07,18.12,103.6,27.22c32.42,8.54,64.82,17.16,97.24,25.7c26.29,6.92,52.62,13.69,78.89,20.67
			c40.28,10.7,80.53,21.52,120.78,32.34c3.25,0.87,6.34,1.07,9.96-0.91C694.9,229.83,655.38,128.57,615.55,26.49z M272.42,631.1
			c-22.82-138.99-45.47-276.89-68.11-414.8c-0.4-0.05-0.8-0.1-1.2-0.15c-0.63,1.8-1.3,3.58-1.87,5.39
			c-7.54,24.03-15.05,48.07-22.59,72.1c-9.67,30.78-19.28,61.58-29.06,92.33c-10.44,32.83-21.01,65.62-31.59,98.41
			c-2.69,8.34-4.44,16.7-4.14,25.6c0.44,12.87,0.11,25.78,0.11,38.66c0,10.71,0.02,21.42-0.01,32.13c-0.01,2.63,0.42,4.82,2.62,6.76
			c14.08,12.5,28.1,25.07,42,37.76c4.31,3.94,8.74,6.02,14.93,5.94c30.49-0.35,61-0.16,91.49-0.16
			C267.14,631.1,269.27,631.1,272.42,631.1z M305.43,758.4c0.87,1.47,1.14,2.1,1.56,2.6c6.18,7.34,12.43,14.62,18.55,22
			c10.98,13.23,21.83,26.56,32.83,39.77c15.05,18.07,30.17,36.09,45.31,54.09c8.74,10.39,17.68,20.61,26.34,31.06
			c2.53,3.06,4.97,3.7,8.85,2.73c23.55-5.87,47.19-11.41,70.78-17.1c33.28-8.03,66.55-16.14,99.84-24.14
			c30.65-7.36,61.33-14.61,91.98-21.94c22.02-5.27,44.03-10.59,66.04-15.91c6.95-1.68,13.88-3.47,21.35-5.34
			c-0.94-0.59-1.34-1.02-1.79-1.08C626.91,802.91,466.74,780.73,305.43,758.4z M926.58,331.7c-2.16-2.29-3.34-3.64-4.63-4.89
			c-6.64-6.43-13.37-12.79-19.97-19.27c-17.09-16.79-34.14-33.62-51.2-50.44c-17.58-17.33-35.18-34.64-52.73-52
			c-26.59-26.3-53.14-52.63-79.7-78.96c-28.5-28.24-56.98-56.49-85.48-84.74c-0.26-0.26-0.49-0.54-0.78-0.76
			c-0.73-0.53-1.49-1.03-3.23-2.22c38.36,98.65,76.24,196.08,114.04,293.27C804.21,331.7,864.77,331.7,926.58,331.7z M811.22,388.25
			c-0.44,79.32-0.76,158.01,0.07,237.01c22.4,0,44.12,0,66.28,0c10-29.93,20.02-59.73,30.13-90.4c-7.25,0.2-13.49-0.34-19.98,0.36
			c-1.11,12.75-2.18,24.97-3.25,37.35c-4.8,0-9.05,0-13.26,0c-0.31-0.86-0.65-1.35-0.64-1.84c0.01-1.81,0.08-3.63,0.23-5.43
			c2.24-26.22,4.9-52.43,4.2-78.81c-0.08-2.9-0.4-5.88,2.74-8.34c-3.18,0-5.52,0-7.86,0c-2.45,0-4.89,0-7.72,0
			c0.37-4.8,0.85-8.93,0.96-13.06c0.08-3.08,1.32-4.57,4.39-5.04c6.29-0.96,10.52-4.8,12.94-10.49c1.41-3.32,2.24-6.88,3.34-10.33
			c0.37-1.16,0.79-2.31,1.26-3.66c3.54-0.27,6.86-0.52,10.75-0.82c-1.19,15.3-2.33,29.86-3.48,44.62c1.92,0.21,3.15,0.47,4.39,0.47
			c8.35,0.04,16.71-0.13,25.06,0.09c3.35,0.09,4.75-1.23,5.77-4.28c9.28-27.88,18.71-55.71,28.06-83.57
			c0.37-1.11,0.41-2.34,0.65-3.82C907.91,388.25,860.03,388.25,811.22,388.25z M973.5,534.77c-2.17,0-4.13,0-6.08,0
			c-15.23,0.04-30.47,0.07-45.7,0.12c-5.34,0.02-5.36,0.03-7.11,5.28c-8.83,26.47-17.65,52.95-26.46,79.43
			c-0.56,1.67-0.96,3.4-1.44,5.12c5.43,1.26,83.47,1.14,87.67-0.02C975.54,618.64,974.95,543.3,973.5,534.77z M799.41,688.23
			c5.76,38.74,11.52,77.51,17.35,116.74c2.88-4.03,38.39-110.34,39.12-116.51C851.69,687.27,806.44,686.97,799.41,688.23z
			 M525.22,536.04c-5.94-1.46-71.39-1.29-75.63,0.04c0,22.85,0,45.77,0,70.12C475.27,582.38,500.06,559.38,525.22,536.04z
			 M208.99,687.68c1.36,1.6,2.3,2.85,3.39,3.95c15.39,15.67,30.79,31.33,46.21,46.96c19.12,19.39,38.24,38.78,57.4,58.13
			c9.33,9.42,18.79,18.71,28.1,28.15c7.39,7.49,14.62,15.13,21.97,22.66c2.95,3.03,6.02,5.94,9.03,8.91
			c-0.11-1.59-0.77-2.65-1.56-3.59c-12.38-14.89-24.77-29.77-37.19-44.64c-9.98-11.95-19.69-24.13-30.09-35.7
			c-6.61-7.35-11.34-16.26-19.56-22.31c-5.81-4.27-10.83-9.61-16.25-14.42c-7.85-6.97-15.78-13.86-23.62-20.83
			c-9.47-8.42-18.98-16.81-28.28-25.42C215.74,686.94,212.94,686.89,208.99,687.68z M289.37,742.75c0.48-0.27,0.95-0.54,1.43-0.81
			c-3.16-18.17-5.71-36.45-9.41-54.8c-17.72,0.21-34.76-0.27-51.79,0.27c-0.1,0.37-0.21,0.74-0.31,1.12
			C249.31,706.61,269.34,724.68,289.37,742.75z M114.32,630.48c7.96,1.22,22.83,0.87,26.15-0.5c-5.22-6.68-22.41-23.32-26.15-25.16
			C114.32,613.39,114.32,621.79,114.32,630.48z M449.51,406.28c7.49-2.49,12.6-12.08,10.26-17.76c-3.45,0-6.77,0-10.26,0
			C449.51,394.61,449.51,400.16,449.51,406.28z"/>
		<path d="M629.64,719.53c20.45,3.51,39.64,6.81,59.51,10.23c-2.87,7.44-5.44,14.14-8.25,21.42c-30.7-5.43-61-10.8-92.04-16.3
			c1.17-2.76,1.9-4.95,2.98-6.96c6.14-11.47,14.57-20.9,26.05-27.12c7.65-4.14,15.66-7.62,23.59-11.21
			c8.27-3.75,16.81-6.92,24.89-11.03c4.78-2.43,9.18-5.84,13.2-9.43c4.44-3.97,6.86-9.34,7.57-15.32c0.88-7.35-2.71-12.8-9.73-14.98
			c-11.13-3.46-21.16,0.17-27.34,10.06c-1.92,3.07-3.47,6.36-5.59,10.29c-8.08-1.21-16.41-2.45-25.35-3.79
			c2.79-8.05,6.65-14.74,11.57-20.8c10.13-12.48,23.36-18.71,39.39-18.9c9.54-0.11,18.85,1.33,27.61,5.3
			c15.58,7.04,22.31,20.92,18.23,37.53c-3.18,12.95-10.5,23.16-21.65,30.27c-6.39,4.08-13.31,7.44-20.28,10.48
			c-9.81,4.28-19.91,7.9-29.84,11.93c-3.36,1.36-6.6,3.03-9.8,4.73C633.02,716.63,631.91,717.77,629.64,719.53z"/>
		<path d="M553.47,640.46c-10.15-1.56-19.72-3.04-29.95-4.61c1.89-5.66,3.54-10.6,5.28-15.81c2.33,0,4.46-0.04,6.59,0.01
			c3.26,0.08,6.53,0.48,9.78,0.32c10.47-0.53,18.8-4.94,24.43-14.01c0.67-1.07,1.4-2.11,2.12-3.14c0.1-0.14,0.3-0.2,1.04-0.66
			c6.22,0.84,12.97,1.74,20.6,2.77c-14.41,41.21-28.57,81.68-42.93,122.73c-8.49-1.51-16.58-2.96-25.38-4.53
			C534.61,695.61,543.91,668.4,553.47,640.46z"/>
		<path d="M545.87,240.65c-13.24-0.36-25.93-3.22-37.81-9.09c-14.64-7.23-18.59-17.56-11.47-32.28
			c9.27-19.18,23.31-34.08,42.78-43.29c12.85-6.08,26.41-5.99,40.01-3.35c5.68,1.1,11.32,2.68,16.75,4.67
			c4.04,1.48,7.94,3.63,11.49,6.06c6.26,4.29,8.73,10.6,7.6,18.03c-0.57,3.73-1.5,7.56-3.11,10.94
			c-8.07,16.95-19.8,30.74-36.09,40.39C566.75,238.23,556.68,240.86,545.87,240.65z M539.23,225.15c6.52-0.36,12.04-2.44,16.87-6.33
			c12.06-9.73,21.27-21.77,28.37-35.48c0.75-1.44,1.29-3.01,1.69-4.59c1.19-4.75-0.04-7.67-4.25-10.06c-1.41-0.8-2.95-1.44-4.5-1.92
			c-9.51-2.92-18.34-1.73-26.13,4.74c-11.18,9.28-20.1,20.42-26.96,33.2c-0.94,1.74-1.64,3.66-2.15,5.58
			c-1.32,5.03,0.03,8.68,4.76,10.86C530.83,222.95,535.12,223.86,539.23,225.15z"/>
		<path d="M375.07,191.68c4.04-3.2,7-5.82,10.23-8.04c11.37-7.83,24.39-11.01,37.79-12.92c10.78-1.54,21.63-2.68,32.37-4.46
			c5.69-0.94,11.39-2.41,16.75-4.49c3.22-1.25,6.29-3.73,8.58-6.39c3.91-4.52,2.65-9.26-2.56-12.21c-9.3-5.27-22.75-4.49-30.64,2.66
			c-3.91,3.54-7.3,4.31-12.11,2.58c-4.75-1.72-9.78-2.65-15.73-4.19c1.86-1.92,3.07-3.37,4.48-4.59
			c10.02-8.64,21.75-13.03,34.9-13.4c12.71-0.36,24.99,2.02,36.5,7.45c3.86,1.83,7.6,4.38,10.65,7.37
			c5.66,5.56,6.1,12.08,2.03,18.89c-3.57,5.98-8.88,9.99-15.05,12.96c-7.28,3.5-15.07,5.33-23,6.41
			c-12.05,1.65-24.15,2.95-36.21,4.53c-4.77,0.63-9.66,0.97-14.2,4.17c17.64,4.98,35.28,9.95,53.92,15.21
			c-3.82,4.66-6.97,8.55-10.18,12.39c-1.48,1.77-3.33,0.94-5.05,0.44c-9.6-2.75-19.18-5.54-28.78-8.31
			c-16.4-4.73-32.79-9.46-49.19-14.2C379.18,193.15,377.83,192.62,375.07,191.68z"/>
		<path d="M193.16,489.68c3.62,2.54,7.03,4.59,9.97,7.17c1.1,0.97,1.51,3.18,1.54,4.84c0.14,8.16,0.04,16.33,0.03,24.49
			c-0.02,14.51,0.03,29.03-0.1,43.54c-0.03,3.01,0.59,5.32,3.43,6.71c2.62,1.28,3.33,3.45,3.22,6.28
			c-0.19,4.84-0.05,9.69-0.05,15.27c-2.38-1.11-4.06-1.9-6.5-3.04c0,9.39,0,18.15,0,27.88c-4.29-2.06-7.35-4.25-10.1-6.72
			c-0.96-0.86-1.08-2.96-1.1-4.51c-0.08-6.71-0.21-13.43,0.13-20.13c0.19-3.76-1.15-6.02-4.25-7.98c-5.05-3.2-9.78-6.91-14.81-10.15
			c-2.72-1.76-3.62-3.8-3.76-7.1c-0.51-12.01,1.88-23.26,6.48-34.35c4.99-12.05,9.1-24.48,13.61-36.73
			C191.51,493.5,192.25,491.88,193.16,489.68z M193.82,517.79c-0.34-0.08-0.67-0.16-1.01-0.24c-4.37,12.9-8.73,25.79-13.18,38.93
			c4.73,3.19,8.67,6.75,14.19,9.2C193.82,549.07,193.82,533.43,193.82,517.79z"/>
		<path d="M132.78,467.19c2.19,0.98,3.64,1.68,5.12,2.28c4.21,1.71,6.97,0.68,8.74-3.54c0.97-2.32,1.49-4.82,2.2-7.24
			c6.6,1.34,8.68,4.13,8.42,10.44c-0.62,14.87-1.07,29.74-1.6,44.61c-0.6,16.5-1.23,33-1.82,49.5c-0.19,5.26-0.25,10.52-0.48,15.78
			c-0.11,2.46-0.47,4.91-0.81,8.22c-3.87-2.62-7.13-4.56-10.02-6.96c-1.01-0.84-1.59-2.82-1.52-4.24
			c1.05-23.2,2.25-46.39,3.38-69.58c0.2-3.99,0.19-7.99,0.45-11.97c0.14-2.06-0.58-3.42-2.26-4.54c-2.87-1.92-5.73-3.86-8.41-6.02
			c-1.01-0.82-2.16-2.25-2.16-3.41C132.02,476.24,132.47,471.96,132.78,467.19z"/>
		<path d="M556.96,828.54c-10.19,7.77-19.81,15.1-29.97,22.84c2.03,0.99,3.52,1.71,5.47,2.66c-3.22,3.44-6.14,6.79-11.45,4.86
			c-2.12-0.77-3.9-0.27-5.53,1.16c-0.54,0.48-1.23,0.81-1.71,1.34c-5.23,5.63-11.54,6.92-18.78,4.92c-1.66-0.46-3.43-0.54-6.6-1.01
			c3.01-2.23,4.97-3.68,6.92-5.13c1.84-1.38,3.68-2.77,6.53-4.92c-15.34-3.04-29.44-5.84-43.54-8.63c5.89-4.83,11.23-9.58,18.72-11
			c20.49-3.9,40.93-8.04,61.34-12.36c4.53-0.96,8.5-0.99,12.37,1.75C552.44,826.23,554.41,827.12,556.96,828.54z M533.65,832.3
			c-0.24-0.38-0.48-0.76-0.72-1.15c-14.24,3.51-28.48,7.01-42.73,10.52c0.03,0.4,0.05,0.8,0.08,1.2c3.62,0.92,7.42,1.41,10.81,2.86
			c7.58,3.24,13.71,1.56,19.63-3.87C524.64,838.25,529.31,835.46,533.65,832.3z"/>
		<path d="M815.59,271.22c5.28-0.52,9.68-1.25,13.1,3.52c1.75,2.43,4.41,4.32,6.93,6.05c1.66,1.13,3.81,1.55,6.52,2.58
			c0-2.31,0.4-3.81-0.06-4.98c-3.41-8.67-9.24-15.76-14.86-23.63c-2.02,5.62-3.84,6.7-8.68,4.91c-3.2-1.18-6.33-2.82-9.12-4.78
			c-16.59-11.59-28.64-27.11-37.99-44.84c-1.41-2.66-2.22-5.78-2.65-8.79c-0.51-3.63,1.52-5.79,5.13-5.12
			c3.67,0.68,7.61,1.73,10.61,3.82c6.23,4.33,12.43,8.93,17.72,14.32c19.49,19.89,36.85,41.53,51.34,65.37
			c2.25,3.7,4.03,7.72,5.72,11.72c0.83,1.96,1.26,4.2,1.35,6.33c0.13,3.09-1.5,4.94-4.56,4.89c-2.46-0.04-5.23-0.4-7.31-1.59
			c-5.17-2.97-10.44-6.02-14.88-9.93c-5.83-5.13-10.92-11.11-16.29-16.77C816.92,273.58,816.48,272.6,815.59,271.22z M812.11,243.89
			c1.93-3.09,0.85-5.29-0.32-7.27c-5.38-9.1-11.83-17.32-20.35-23.72c-1.55-1.16-3.45-2.02-5.32-2.56
			c-1.97-0.57-3.24,0.68-2.74,2.71c0.47,1.89,1.19,3.87,2.32,5.43c3.9,5.42,7.84,10.84,12.13,15.95c2.29,2.73,5.19,5.05,8.13,7.11
			C807.72,242.77,810.08,243.15,812.11,243.89z"/>
		<path d="M816.12,297.9c-1.25,0.26-1.77,0.45-2.3,0.47c-8.63,0.32-8.63,0.32-13.52-6.95c-14.78-21.96-29.66-43.87-44.27-65.95
			c-2.36-3.57-5.03-5.41-9.19-5.37c-1.45,0.01-2.93,0-4.33-0.3c-1.17-0.25-2.67-0.62-3.29-1.47c-2.4-3.3-4.51-6.82-6.84-10.43
			c1.07-0.48,1.52-0.78,2.01-0.88c5.76-1.15,6.59-2.61,4.45-8.14c-0.64-1.66-1.41-3.26-2.27-5.24c4.35-0.73,7.39-0.24,10.01,3.57
			c22.34,32.4,44.86,64.66,67.32,96.97C814.6,295.19,815.16,296.29,816.12,297.9z"/>
		<path d="M830.78,481.05c-5.14,0-9.43,0-14.07,0c-0.89-5.16,0.58-10.09,1.02-15.04c0.06-0.73,1.39-1.79,2.25-1.93
			c10.18-1.66,13.64-9.18,15.85-17.86c0.45-1.75,0.9-3.49,1.49-5.79c3.11-0.29,6.24-0.58,10.2-0.95
			c-4,44.29-7.94,87.87-11.87,131.29c-4.49,1.32-7.63,1.32-13.11-0.02C825.27,541.12,828,511.4,830.78,481.05z"/>
	</g>
</g>
</svg>
